<svg width="24" height="24" viewBox="0 0 24 24" fill="none" xmlns="http://www.w3.org/2000/svg">
<path fill-rule="evenodd" clip-rule="evenodd" d="M13.06 16.0604C12.7788 16.3413 12.3975 16.4991 12 16.4991C11.6025 16.4991 11.2213 16.3413 10.94 16.0604L5.28202 10.4044C5.00076 10.123 4.8428 9.74138 4.8429 9.34352C4.84299 8.94567 5.00113 8.56414 5.28252 8.28288C5.56392 8.00162 5.94552 7.84366 6.34338 7.84375C6.74123 7.84384 7.12276 8.00198 7.40402 8.28338L12 12.8794L16.596 8.28338C16.8788 8.01 17.2576 7.85863 17.6509 7.86186C18.0442 7.86509 18.4205 8.02267 18.6988 8.30065C18.977 8.57863 19.1349 8.95478 19.1385 9.34807C19.1421 9.74137 18.9911 10.1203 18.718 10.4034L13.06 16.0604Z" fill="white"/>
</svg>
