<svg width="5" height="8" viewBox="0 0 5 8" fill="none" xmlns="http://www.w3.org/2000/svg">
<path fill-rule="evenodd" clip-rule="evenodd" d="M3.90137 3.57824C3.99353 3.67042 4.0453 3.79544 4.0453 3.92578C4.0453 4.05613 3.99353 4.18114 3.90137 4.27332L1.12055 7.05415C1.0752 7.1011 1.02096 7.13855 0.960984 7.16431C0.90101 7.19008 0.836506 7.20364 0.771235 7.2042C0.705964 7.20477 0.641234 7.19233 0.580822 7.16762C0.520409 7.1429 0.465524 7.1064 0.419369 7.06024C0.373214 7.01409 0.336713 6.9592 0.311996 6.89879C0.28728 6.83838 0.274842 6.77365 0.275409 6.70838C0.275976 6.64311 0.289537 6.5786 0.3153 6.51863C0.341063 6.45866 0.378512 6.40441 0.425462 6.35907L2.85875 3.92578L0.425462 1.4925C0.335918 1.39979 0.28637 1.27561 0.28749 1.14672C0.28861 1.01784 0.340308 0.894544 0.43145 0.803402C0.522591 0.71226 0.645884 0.660562 0.774773 0.659442C0.903662 0.658322 1.02783 0.70787 1.12055 0.797414L3.90137 3.57824Z" fill="black"/>
</svg>
